<?xml version="1.0" encoding="UTF-8" standalone="no"?>
<!-- Created with Inkscape (http://www.inkscape.org/) -->
<svg xmlns:svg="http://www.w3.org/2000/svg" xmlns="http://www.w3.org/2000/svg" version="1.0" width="1220" height="188" viewBox="-0.264 -0.13 1220 188" id="svg2" xml:space="preserve">
	<defs id="defs4">
	</defs>
	<g id="g6">
		<g id="g8">
			<g id="g10">
				<path d="M 436.177,100.073 C 436.177,104.826 435.333,109.3 433.751,113.489 C 432.165,117.685 429.931,121.229 426.948,124.304 C 423.969,127.38 420.427,129.797 416.419,131.474 C 412.413,133.158 407.749,133.993 402.44,133.993 C 394.801,133.993 388.929,132.133 384.829,128.494 C 380.824,124.862 378.773,119.83 378.773,113.401 C 378.773,108.927 379.519,104.548 381.006,100.447 C 382.595,96.442 384.828,92.803 387.809,89.639 C 390.702,86.563 394.239,84.234 398.434,82.463 C 402.623,80.691 407.288,79.761 412.5,79.761 C 420.24,79.761 426.017,81.532 430.111,85.165 C 434.126,88.702 436.177,93.739 436.177,100.073 z M 467.482,133.809 C 464.033,133.809 460.773,133.341 457.699,132.499 C 454.719,131.664 452.015,130.265 449.783,128.493 C 447.543,126.721 445.771,124.488 444.562,121.785 C 443.351,119.083 442.695,115.913 442.695,112.375 C 442.695,107.806 443.537,103.521 445.308,99.605 C 447.074,95.694 449.497,92.245 452.667,89.359 C 455.741,86.467 459.47,84.138 463.944,82.462 C 468.417,80.785 473.258,79.943 478.383,79.943 C 481.555,79.943 484.629,80.317 487.705,80.968 C 490.779,81.715 493.666,82.74 496.279,84.044 L 492.83,98.023 L 490.494,98.023 C 488.73,95.877 486.68,94.2 484.439,93.175 C 482.205,92.15 479.687,91.593 476.8,91.593 C 471.675,91.593 467.573,93.453 464.405,97.092 C 461.335,100.725 459.747,105.293 459.747,110.786 C 459.747,114.608 460.677,117.405 462.638,119.361 C 464.595,121.228 467.574,122.158 471.579,122.158 C 474.751,122.158 477.636,121.506 480.249,120.202 C 482.761,118.898 485.003,117.5 486.862,115.912 L 489.19,115.912 L 485.747,129.891 C 482.483,131.29 479.597,132.314 477.079,132.872 C 474.658,133.524 471.494,133.809 467.482,133.809 z M 582.007,133.809 C 577.628,133.809 573.433,133.435 569.331,132.594 C 565.231,131.759 562.067,130.822 559.923,129.709 L 563.093,116.287 L 564.581,116.287 C 565.231,116.85 566.073,117.502 567.099,118.154 C 568.124,118.901 569.523,119.641 571.478,120.388 C 573.06,121.04 574.927,121.692 577.066,122.16 C 579.211,122.628 581.445,122.907 583.962,122.907 C 587.595,122.907 590.392,122.438 592.165,121.603 C 594.024,120.762 594.96,119.553 594.96,117.964 C 594.96,116.756 594.31,115.825 592.999,115.262 C 591.696,114.61 588.993,113.775 584.894,112.839 C 577.908,111.257 573.156,109.302 570.546,107.061 C 568.03,104.732 566.726,101.936 566.726,98.493 C 566.726,92.805 569.331,88.242 574.458,84.888 C 579.583,81.623 586.571,79.946 595.423,79.946 C 599.245,79.946 603.068,80.32 606.89,81.066 C 610.706,81.901 613.503,82.743 615.275,83.585 L 612.295,96.532 L 610.897,96.532 C 608.657,94.855 606.049,93.456 603.069,92.431 C 599.993,91.406 596.825,90.849 593.661,90.849 C 590.116,90.849 587.413,91.223 585.546,92.064 C 583.687,92.899 582.757,94.203 582.757,95.975 C 582.757,97.279 583.591,98.304 585.181,99.051 C 586.763,99.703 589.281,100.449 592.818,101.196 C 599.248,102.595 603.906,104.36 606.703,106.506 C 609.594,108.651 610.986,111.537 610.986,115.359 C 610.986,121.137 608.379,125.61 603.166,128.869 C 597.943,132.132 590.861,133.809 582.007,133.809 z M 643.878,133.809 C 640.435,133.809 637.169,133.341 634.095,132.499 C 631.115,131.664 628.411,130.265 626.179,128.493 C 623.939,126.721 622.171,124.488 620.958,121.785 C 619.747,119.083 619.097,115.913 619.097,112.375 C 619.097,107.806 619.933,103.521 621.704,99.605 C 623.475,95.694 625.893,92.245 629.063,89.359 C 632.137,86.467 635.866,84.138 640.34,82.462 C 644.813,80.785 649.662,79.943 654.779,79.943 C 657.951,79.943 661.025,80.317 664.101,80.968 C 667.175,81.715 670.062,82.74 672.675,84.044 L 669.226,98.023 L 666.9,98.023 C 665.129,95.877 663.078,94.2 660.837,93.175 C 658.603,92.15 656.091,91.593 653.198,91.593 C 648.073,91.593 643.971,93.453 640.807,97.092 C 637.733,100.725 636.145,105.293 636.145,110.786 C 636.145,114.608 637.081,117.405 639.036,119.361 C 640.993,121.228 643.972,122.158 647.977,122.158 C 651.149,122.158 654.04,121.506 656.647,120.202 C 659.167,118.898 661.401,117.5 663.26,115.912 L 665.594,115.912 L 662.145,129.891 C 658.881,131.29 655.995,132.314 653.477,132.872 C 651.054,133.524 647.89,133.809 643.878,133.809 z M 801.455,81.342 L 789.621,132.41 L 773.131,132.41 L 774.434,126.721 C 772.846,127.841 771.168,128.866 769.682,129.708 C 768.094,130.638 766.608,131.385 765.207,131.941 C 763.436,132.688 761.853,133.156 760.455,133.434 C 758.963,133.713 757.562,133.808 756.076,133.808 C 751.601,133.808 748.058,132.688 745.547,130.543 C 742.94,128.404 741.629,125.234 741.629,121.038 C 741.629,119.924 741.723,118.804 741.818,117.874 C 741.914,116.849 742.097,115.729 742.375,114.608 L 750.107,81.341 L 766.695,81.341 L 760.828,106.596 C 760.359,108.552 759.986,110.228 759.805,111.627 C 759.526,113.025 759.43,114.234 759.43,115.164 C 759.43,117.214 759.899,118.613 760.828,119.55 C 761.853,120.385 763.625,120.853 766.328,120.853 C 767.719,120.853 769.213,120.575 770.986,120.012 C 772.662,119.455 774.521,118.613 776.574,117.499 L 784.963,81.34 L 801.455,81.34 L 801.455,81.342 z M 865.753,133.809 C 857.085,133.809 850.282,131.848 845.53,128.032 C 840.776,124.21 838.448,118.9 838.448,112.097 C 838.448,107.433 839.194,103.149 840.776,99.232 C 842.366,95.416 844.6,91.967 847.485,89.075 C 850.282,86.189 853.729,83.949 857.926,82.272 C 862.114,80.595 866.78,79.76 871.811,79.76 C 879.354,79.76 885.131,81.342 889.047,84.418 C 892.869,87.493 894.824,91.967 894.824,98.023 C 894.824,100.073 894.635,102.124 894.174,104.079 C 893.801,106.034 893.242,107.996 892.584,109.951 L 854.477,109.951 C 854.477,110.135 854.477,110.324 854.477,110.508 C 854.477,110.603 854.477,110.786 854.477,110.976 C 854.477,114.513 855.686,117.31 858.206,119.266 C 860.718,121.227 864.538,122.252 869.759,122.252 C 873.298,122.252 876.747,121.6 879.917,120.385 C 883.175,119.177 885.972,117.873 888.302,116.379 L 890.167,116.379 L 887.093,129.517 C 883.923,130.915 880.57,132.036 877.025,132.687 C 873.488,133.435 869.759,133.809 865.753,133.809 z M 1035.248,127.006 C 1034.228,127.658 1033.021,128.493 1031.527,129.43 C 1030.127,130.36 1028.73,131.107 1027.521,131.664 C 1025.748,132.411 1024.166,132.873 1022.673,133.246 C 1021.179,133.62 1019.13,133.809 1016.427,133.809 C 1012.238,133.809 1008.695,132.594 1005.991,130.266 C 1003.29,127.842 1001.985,124.766 1001.985,120.951 C 1001.985,116.85 1002.915,113.49 1004.872,110.604 C 1006.739,107.807 1009.624,105.573 1013.352,103.896 C 1016.895,102.308 1021.09,101.194 1025.932,100.542 C 1030.778,99.795 1036.094,99.327 1041.778,98.954 C 1041.778,98.77 1041.866,98.492 1041.967,98.024 C 1042.055,97.65 1042.055,97.182 1042.055,96.72 C 1042.055,94.48 1041.119,92.993 1039.069,92.152 C 1037.12,91.317 1034.131,90.848 1030.126,90.848 C 1027.425,90.848 1024.446,91.316 1021.179,92.246 C 1017.921,93.088 1015.497,93.828 1013.82,94.48 L 1012.328,94.48 L 1014.75,82.368 C 1016.617,81.9 1019.598,81.343 1023.604,80.786 C 1027.612,80.135 1031.622,79.856 1035.627,79.856 C 1043.551,79.856 1049.512,80.881 1053.232,83.02 C 1056.966,85.07 1058.826,88.335 1058.826,92.715 C 1058.826,93.367 1058.738,94.114 1058.637,95.132 C 1058.549,96.069 1058.461,96.904 1058.27,97.651 L 1050.258,132.411 L 1034.039,132.411 L 1035.248,127.006 z M 1125.917,133.809 C 1117.259,133.809 1110.45,131.848 1105.704,128.032 C 1100.946,124.21 1098.616,118.9 1098.616,112.097 C 1098.616,107.433 1099.364,103.149 1100.946,99.232 C 1102.528,95.416 1104.766,91.967 1107.653,89.075 C 1110.45,86.189 1113.893,83.949 1118.094,82.272 C 1122.283,80.595 1126.942,79.76 1131.977,79.76 C 1139.522,79.76 1145.305,81.342 1149.215,84.418 C 1153.037,87.493 1154.986,91.967 1154.986,98.023 C 1154.986,100.073 1154.808,102.124 1154.341,104.079 C 1153.96,106.034 1153.403,107.996 1152.759,109.951 L 1114.638,109.951 C 1114.638,110.135 1114.638,110.324 1114.638,110.508 C 1114.638,110.603 1114.638,110.786 1114.638,110.976 C 1114.638,114.513 1115.853,117.31 1118.37,119.266 C 1120.89,121.227 1124.712,122.252 1129.927,122.252 C 1133.47,122.252 1136.911,121.6 1140.075,120.385 C 1143.343,119.177 1146.138,117.873 1148.468,116.379 L 1150.327,116.379 L 1147.253,129.517 C 1144.089,130.915 1140.735,132.036 1137.19,132.687 C 1133.65,133.435 1129.929,133.809 1125.917,133.809 z M 376.534,64.661 L 360.885,132.41 L 343.362,132.41 L 350.26,102.497 L 324.631,102.497 L 317.645,132.41 L 300.128,132.41 L 315.777,64.661 L 333.3,64.661 L 327.523,89.639 L 353.241,89.639 L 359.018,64.661 L 376.534,64.661 z M 555.822,92.897 C 555.822,93.644 555.726,94.574 555.638,95.694 C 555.544,96.902 555.355,98.023 555.075,99.143 L 547.341,132.41 L 530.853,132.41 L 536.628,107.155 C 537.091,105.199 537.37,103.522 537.655,102.219 C 537.932,100.916 538.02,99.7 538.02,98.58 C 538.02,96.624 537.463,95.131 536.532,94.201 C 535.509,93.366 533.641,92.898 530.94,92.898 C 529.729,92.898 528.237,93.176 526.465,93.74 C 524.787,94.297 522.926,95.132 520.877,96.252 L 512.492,132.411 L 495.994,132.411 L 512.396,61.587 L 528.888,61.587 L 523.021,87.026 C 526.281,84.792 529.357,83.02 532.152,81.812 C 534.945,80.597 538.019,79.945 541.373,79.945 C 545.943,79.945 549.574,81.065 552.094,83.299 C 554.615,85.626 555.822,88.797 555.822,92.897 z M 732.218,92.897 C 732.218,93.644 732.122,94.574 732.034,95.694 C 731.94,96.902 731.751,98.023 731.471,99.143 L 723.737,132.41 L 707.25,132.41 L 713.025,107.155 C 713.488,105.199 713.767,103.522 714.052,102.219 C 714.329,100.916 714.423,99.7 714.423,98.58 C 714.423,96.624 713.86,95.131 712.929,94.201 C 711.906,93.366 710.038,92.898 707.337,92.898 C 706.126,92.898 704.634,93.176 702.868,93.74 C 701.184,94.297 699.323,95.132 697.274,96.252 L 688.889,132.411 L 672.391,132.411 L 688.793,61.587 L 705.285,61.587 L 699.418,87.026 C 702.678,84.792 705.754,83.02 708.549,81.812 C 711.346,80.597 714.422,79.945 717.778,79.945 C 722.341,79.945 725.979,81.065 728.491,83.299 C 731.011,85.626 732.218,88.797 732.218,92.897 z M 837.988,61.586 L 821.584,132.41 L 805.094,132.41 L 821.49,61.586 L 837.988,61.586 z M 994.81,132.41 L 977.105,132.41 L 975.523,118.526 L 950.83,118.526 L 942.908,132.41 L 924.644,132.41 L 965.183,64.661 L 985.402,64.661 L 994.81,132.41 z M 1098.15,61.586 L 1081.748,132.41 L 1065.256,132.41 L 1081.658,61.586 L 1098.15,61.586 z M 1218.826,92.897 C 1218.826,93.827 1218.738,94.764 1218.637,95.877 C 1218.547,96.902 1218.358,98.023 1218.08,99.143 L 1210.435,132.41 L 1193.945,132.41 L 1199.627,107.155 C 1200.096,105.199 1200.373,103.617 1200.652,102.308 C 1200.843,101.004 1201.033,99.701 1201.033,98.58 C 1201.033,96.624 1200.463,95.131 1199.539,94.296 C 1198.514,93.366 1196.652,92.898 1194.033,92.898 C 1192.728,92.898 1191.248,93.176 1189.564,93.74 C 1187.793,94.297 1185.933,95.132 1183.781,96.252 L 1175.492,132.411 L 1159,132.411 L 1170.834,81.343 L 1187.326,81.343 L 1185.933,87.026 C 1189.287,84.792 1192.363,83.02 1195.16,81.812 C 1197.957,80.597 1201.033,79.945 1204.285,79.945 C 1208.853,79.945 1212.486,81.065 1215.004,83.299 C 1217.523,85.443 1218.826,88.702 1218.826,92.897 z M 1039.626,108.275 C 1036.651,108.553 1033.95,108.832 1031.337,109.11 C 1028.73,109.483 1026.583,109.951 1024.817,110.603 C 1022.952,111.255 1021.463,112.185 1020.526,113.4 C 1019.503,114.608 1019.04,116.191 1019.04,118.241 C 1019.04,120.013 1019.692,121.228 1020.997,121.968 C 1022.3,122.626 1024.165,122.993 1026.679,122.993 C 1028.261,122.993 1030.033,122.626 1031.9,121.88 C 1033.761,121.133 1035.525,120.203 1037.121,119.083 L 1039.626,108.275 z M 414.926,116.754 C 416.325,114.608 417.351,112.28 418.098,109.761 C 418.749,107.249 419.122,104.268 419.122,100.63 C 419.122,97.554 418.47,95.131 417.072,93.454 C 415.673,91.777 413.528,90.942 410.548,90.942 C 408.219,90.942 406.168,91.499 404.491,92.619 C 402.72,93.74 401.138,95.322 399.834,97.372 C 398.619,99.327 397.595,101.656 396.942,104.453 C 396.195,107.25 395.829,110.136 395.829,113.122 C 395.829,116.564 396.568,119.083 398.157,120.577 C 399.739,122.064 401.789,122.811 404.491,122.811 C 406.542,122.811 408.408,122.254 410.269,121.229 C 412.042,120.108 413.624,118.615 414.926,116.754 z M 974.308,106.408 L 971.517,82.272 L 957.72,106.408 L 974.308,106.408 z M 878.33,100.352 C 878.426,99.795 878.519,99.327 878.519,98.865 C 878.615,98.397 878.615,97.928 878.615,97.467 C 878.615,95.043 877.867,93.176 876.373,91.968 C 874.887,90.664 872.742,90.012 869.85,90.012 C 866.496,90.012 863.61,90.942 861.371,92.714 C 859.041,94.574 857.275,97.093 856.06,100.352 L 878.33,100.352 L 878.33,100.352 z M 1138.496,100.352 C 1138.6,99.795 1138.687,99.327 1138.687,98.865 C 1138.775,98.397 1138.775,97.928 1138.775,97.467 C 1138.775,95.043 1138.029,93.176 1136.548,91.968 C 1135.054,90.664 1132.903,90.012 1130.017,90.012 C 1126.663,90.012 1123.779,90.942 1121.537,92.714 C 1119.211,94.574 1117.437,97.093 1116.236,100.352 L 1138.496,100.352 L 1138.496,100.352 z " style="fill:#c1c1c3" id="path12"/>
			</g>
		</g>
		<path d="M 120.05,49.863 C 127.913,45.468 139.55,45.392 146.601,49.675 C 153.956,54.148 154.025,61.923 146.134,67.079 C 137.849,72.491 124.628,72.606 117.306,67.319 C 110.314,62.268 111.822,54.461 120.05,49.863" style="fill:#0071bc" id="path14"/>
		<path d="M 168.929,51.703 C 174.421,51.664 179.226,54.392 179.681,57.896 C 180.154,61.523 175.822,64.591 169.986,64.64 C 164.15,64.687 159.31,61.687 159.189,58.056 C 159.074,54.539 163.437,51.744 168.929,51.703" style="fill:#338dc9" id="path16"/>
		<path d="M 194.578,51.553 C 200.051,51.512 205.182,54.233 206.07,57.729 C 206.99,61.344 203.054,64.409 197.238,64.456 C 191.422,64.505 186.226,61.513 185.654,57.89 C 185.097,54.385 189.101,51.592 194.578,51.553" style="fill:#66aad7" id="path18"/>
		<path d="M 220.105,51.309 C 225.554,51.268 231.009,53.981 232.33,57.469 C 233.693,61.069 230.146,64.119 224.357,64.168 C 218.566,64.217 213.009,61.232 211.99,57.619 C 211.001,54.129 214.65,51.348 220.105,51.309" style="fill:#99c6e4" id="path20"/>
		<path d="M 220.105,51.309 C 225.554,51.268 231.009,53.981 232.33,57.469 C 233.693,61.069 230.146,64.119 224.357,64.168 C 218.566,64.217 213.009,61.232 211.99,57.619 C 211.001,54.129 214.65,51.348 220.105,51.309" style="fill:#99c6e4" id="path22"/>
		<path d="M 220.105,51.309 C 225.554,51.268 231.009,53.981 232.33,57.469 C 233.693,61.069 230.146,64.119 224.357,64.168 C 218.566,64.217 213.009,61.232 211.99,57.619 C 211.001,54.129 214.65,51.348 220.105,51.309" style="fill:#99c6e4" id="path24"/>
		<path d="M 245.826,51.123 C 251.258,51.084 257.037,53.787 258.789,57.264 C 260.602,60.856 257.445,63.901 251.678,63.948 C 245.907,63.993 239.998,61.02 238.526,57.421 C 237.105,53.936 240.394,51.164 245.826,51.123" style="fill:#cce3f2" id="path26"/>
		<path d="M 245.826,51.123 C 251.258,51.084 257.037,53.787 258.789,57.264 C 260.602,60.856 257.445,63.901 251.678,63.948 C 245.907,63.993 239.998,61.02 238.526,57.421 C 237.105,53.936 240.394,51.164 245.826,51.123" style="fill:#cce3f2" id="path28"/>
		<path d="M 245.826,51.123 C 251.258,51.084 257.037,53.787 258.789,57.264 C 260.602,60.856 257.445,63.901 251.678,63.948 C 245.907,63.993 239.998,61.02 238.526,57.421 C 237.105,53.936 240.394,51.164 245.826,51.123" style="fill:#cce3f2" id="path30"/>
		<path d="M 93.386,65.404 C 87.482,65.451 83.657,62.424 84.818,58.756 C 85.937,55.213 91.322,52.393 96.875,52.348 C 102.426,52.313 106.311,55.061 105.537,58.596 C 104.734,62.256 99.285,65.352 93.386,65.404" style="fill:#338dc9" id="path32"/>
		<path d="M 65.742,65.588 C 59.814,65.637 56.361,62.604 57.986,58.928 C 59.554,55.371 65.306,52.545 70.879,52.504 C 76.445,52.465 79.998,55.221 78.777,58.764 C 77.513,62.436 71.662,65.539 65.742,65.588" style="fill:#66aad7" id="path34"/>
		<path d="M 37.898,65.859 C 31.945,65.908 28.865,62.863 30.96,59.175 C 32.981,55.607 39.108,52.771 44.706,52.732 C 50.292,52.691 53.505,55.455 51.833,59.015 C 50.105,62.695 43.841,65.813 37.898,65.859" style="fill:#99c6e4" id="path36"/>
		<path d="M 37.898,65.859 C 31.945,65.908 28.865,62.863 30.96,59.175 C 32.981,55.607 39.108,52.771 44.706,52.732 C 50.292,52.691 53.505,55.455 51.833,59.015 C 50.105,62.695 43.841,65.813 37.898,65.859" style="fill:#99c6e4" id="path38"/>
		<path d="M 37.898,65.859 C 31.945,65.908 28.865,62.863 30.96,59.175 C 32.981,55.607 39.108,52.771 44.706,52.732 C 50.292,52.691 53.505,55.455 51.833,59.015 C 50.105,62.695 43.841,65.813 37.898,65.859" style="fill:#99c6e4" id="path40"/>
		<path d="M 9.722,66.088 C 3.749,66.141 1.05,63.084 3.62,59.385 C 6.104,55.809 12.612,52.965 18.229,52.924 C 23.836,52.885 26.706,55.656 24.577,59.225 C 22.375,62.916 15.693,66.039 9.722,66.088" style="fill:#cce3f2" id="path42"/>
		<path d="M 9.722,66.088 C 3.749,66.141 1.05,63.084 3.62,59.385 C 6.104,55.809 12.612,52.965 18.229,52.924 C 23.836,52.885 26.706,55.656 24.577,59.225 C 22.375,62.916 15.693,66.039 9.722,66.088" style="fill:#cce3f2" id="path44"/>
		<path d="M 9.722,66.088 C 3.749,66.141 1.05,63.084 3.62,59.385 C 6.104,55.809 12.612,52.965 18.229,52.924 C 23.836,52.885 26.706,55.656 24.577,59.225 C 22.375,62.916 15.693,66.039 9.722,66.088" style="fill:#cce3f2" id="path46"/>
		<path d="M 151.365,38.955 C 154.982,36.863 160.83,36.828 164.566,38.871 C 168.386,40.961 168.677,44.484 165.078,46.748 C 161.39,49.068 155.166,49.107 151.334,46.844 C 147.585,44.629 147.666,41.096 151.365,38.955" style="fill:#338dc9" id="path48"/>
		<path d="M 167.662,29.564 C 170.933,27.671 176.494,27.64 180.201,29.496 C 183.99,31.385 184.537,34.568 181.289,36.607 C 177.975,38.691 172.082,38.728 168.266,36.687 C 164.533,34.688 164.322,31.5 167.662,29.564" style="fill:#66aad7" id="path50"/>
		<path d="M 182.322,21.008 C 185.299,19.287 190.59,19.26 194.261,20.944 C 198.001,22.665 198.753,25.549 195.814,27.397 C 192.81,29.28 187.214,29.313 183.437,27.465 C 179.734,25.652 179.289,22.76 182.322,21.008" style="fill:#99c6e4" id="path52"/>
		<path d="M 182.322,21.008 C 185.299,19.287 190.59,19.26 194.261,20.944 C 198.001,22.665 198.753,25.549 195.814,27.397 C 192.81,29.28 187.214,29.313 183.437,27.465 C 179.734,25.652 179.289,22.76 182.322,21.008" style="fill:#99c6e4" id="path54"/>
		<path d="M 182.322,21.008 C 185.299,19.287 190.59,19.26 194.261,20.944 C 198.001,22.665 198.753,25.549 195.814,27.397 C 192.81,29.28 187.214,29.313 183.437,27.465 C 179.734,25.652 179.289,22.76 182.322,21.008" style="fill:#99c6e4" id="path56"/>
		<path d="M 195.875,13.168 C 198.586,11.604 203.635,11.58 207.258,13.115 C 210.949,14.683 211.865,17.312 209.194,18.992 C 206.471,20.703 201.143,20.728 197.411,19.049 C 193.75,17.4 193.109,14.768 195.875,13.168" style="fill:#cce3f2" id="path58"/>
		<path d="M 195.875,13.168 C 198.586,11.604 203.635,11.58 207.258,13.115 C 210.949,14.683 211.865,17.312 209.194,18.992 C 206.471,20.703 201.143,20.728 197.411,19.049 C 193.75,17.4 193.109,14.768 195.875,13.168" style="fill:#cce3f2" id="path60"/>
		<path d="M 195.875,13.168 C 198.586,11.604 203.635,11.58 207.258,13.115 C 210.949,14.683 211.865,17.312 209.194,18.992 C 206.471,20.703 201.143,20.728 197.411,19.049 C 193.75,17.4 193.109,14.768 195.875,13.168" style="fill:#cce3f2" id="path62"/>
		<path d="M 109.234,82.035 C 104.113,85.256 96.738,85.324 92.982,82.183 C 89.322,79.128 90.628,74.271 95.693,71.339 C 100.629,68.484 107.482,68.423 111.197,71.206 C 115.001,74.061 114.214,78.9 109.234,82.035" style="fill:#338dc9" id="path64"/>
		<path d="M 83.97,97.859 C 78.128,101.531 70.234,101.615 66.589,98.039 C 63.05,94.56 65.021,89.045 70.765,85.721 C 76.353,82.485 83.658,82.416 87.292,85.561 C 91.029,88.793 89.646,94.293 83.97,97.859" style="fill:#66aad7" id="path66"/>
		<path d="M 55.082,116.111 C 48.35,120.343 39.85,120.447 36.391,116.332 C 33.036,112.332 35.858,106.008 42.43,102.199 C 48.815,98.504 56.629,98.424 60.139,102.011 C 63.75,105.703 61.605,112.008 55.082,116.111" style="fill:#99c6e4" id="path68"/>
		<path d="M 55.082,116.111 C 48.35,120.343 39.85,120.447 36.391,116.332 C 33.036,112.332 35.858,106.008 42.43,102.199 C 48.815,98.504 56.629,98.424 60.139,102.011 C 63.75,105.703 61.605,112.008 55.082,116.111" style="fill:#99c6e4" id="path70"/>
		<path d="M 55.082,116.111 C 48.35,120.343 39.85,120.447 36.391,116.332 C 33.036,112.332 35.858,106.008 42.43,102.199 C 48.815,98.504 56.629,98.424 60.139,102.011 C 63.75,105.703 61.605,112.008 55.082,116.111" style="fill:#99c6e4" id="path72"/>
		<path d="M 21.265,137.375 C 13.413,142.316 4.206,142.436 1.042,137.641 C -2.019,132.996 1.913,125.661 9.521,121.256 C 16.89,116.988 25.296,116.893 28.597,121.027 C 31.998,125.293 28.861,132.6 21.265,137.375" style="fill:#cce3f2" id="path74"/>
		<path d="M 21.265,137.375 C 13.413,142.316 4.206,142.436 1.042,137.641 C -2.019,132.996 1.913,125.661 9.521,121.256 C 16.89,116.988 25.296,116.893 28.597,121.027 C 31.998,125.293 28.861,132.6 21.265,137.375" style="fill:#cce3f2" id="path76"/>
		<path d="M 21.265,137.375 C 13.413,142.316 4.206,142.436 1.042,137.641 C -2.019,132.996 1.913,125.661 9.521,121.256 C 16.89,116.988 25.296,116.893 28.597,121.027 C 31.998,125.293 28.861,132.6 21.265,137.375" style="fill:#cce3f2" id="path78"/>
		<path d="M 124.986,37.309 C 125.39,34.44 129.757,32.157 134.746,32.123 C 139.734,32.096 143.674,34.332 143.547,37.195 C 143.414,40.148 139.039,42.636 133.77,42.668 C 128.498,42.703 124.57,40.268 124.986,37.309" style="fill:#338dc9" id="path80"/>
		<path d="M 126.83,24.592 C 127.185,22.088 131.25,20.092 135.918,20.069 C 140.578,20.046 144.27,22.001 144.158,24.501 C 144.047,27.073 139.974,29.233 135.062,29.261 C 130.15,29.289 126.47,27.168 126.83,24.592" style="fill:#66aad7" id="path82"/>
		<path d="M 128.333,13.451 C 128.642,11.248 132.444,9.488 136.829,9.472 C 141.21,9.451 144.677,11.175 144.577,13.374 C 144.477,15.636 140.673,17.53 136.077,17.552 C 131.478,17.576 128.013,15.713 128.333,13.451" style="fill:#99c6e4" id="path84"/>
		<path d="M 128.333,13.451 C 128.642,11.248 132.444,9.488 136.829,9.472 C 141.21,9.451 144.677,11.175 144.577,13.374 C 144.477,15.636 140.673,17.53 136.077,17.552 C 131.478,17.576 128.013,15.713 128.333,13.451" style="fill:#99c6e4" id="path86"/>
		<path d="M 128.333,13.451 C 128.642,11.248 132.444,9.488 136.829,9.472 C 141.21,9.451 144.677,11.175 144.577,13.374 C 144.477,15.636 140.673,17.53 136.077,17.552 C 131.478,17.576 128.013,15.713 128.333,13.451" style="fill:#99c6e4" id="path88"/>
		<path d="M 129.738,3.523 C 130.013,1.572 133.582,0.011 137.711,0 C 141.838,-0.016 145.109,1.516 145.022,3.465 C 144.934,5.465 141.362,7.137 137.047,7.153 C 132.726,7.172 129.453,5.523 129.738,3.523" style="fill:#cce3f2" id="path90"/>
		<path d="M 129.738,3.523 C 130.013,1.572 133.582,0.011 137.711,0 C 141.838,-0.016 145.109,1.516 145.022,3.465 C 144.934,5.465 141.362,7.137 137.047,7.153 C 132.726,7.172 129.453,5.523 129.738,3.523" style="fill:#cce3f2" id="path92"/>
		<path d="M 129.738,3.523 C 130.013,1.572 133.582,0.011 137.711,0 C 141.838,-0.016 145.109,1.516 145.022,3.465 C 144.934,5.465 141.362,7.137 137.047,7.153 C 132.726,7.172 129.453,5.523 129.738,3.523" style="fill:#cce3f2" id="path94"/>
		<path d="M 141.681,84.484 C 141.482,89.091 135.952,93.011 129.333,93.08 C 122.71,93.144 117.882,89.32 118.528,84.703 C 119.153,80.256 124.657,76.724 130.841,76.672 C 137.021,76.615 141.875,80.049 141.681,84.484" style="fill:#338dc9" id="path96"/>
		<path d="M 140.601,107.676 C 140.357,113.233 134.253,117.985 126.966,118.069 C 119.669,118.153 114.409,113.532 115.193,107.962 C 115.945,102.612 122.021,98.382 128.785,98.314 C 135.546,98.24 140.837,102.348 140.601,107.676" style="fill:#66aad7" id="path98"/>
		<path d="M 139.466,135.947 C 139.169,142.783 132.349,148.656 124.241,148.767 C 116.12,148.884 110.345,143.171 111.309,136.316 C 112.225,129.767 119,124.595 126.469,124.503 C 133.929,124.412 139.75,129.42 139.466,135.947" style="fill:#99c6e4" id="path100"/>
		<path d="M 139.466,135.947 C 139.169,142.783 132.349,148.656 124.241,148.767 C 116.12,148.884 110.345,143.171 111.309,136.316 C 112.225,129.767 119,124.595 126.469,124.503 C 133.929,124.412 139.75,129.42 139.466,135.947" style="fill:#99c6e4" id="path102"/>
		<path d="M 139.466,135.947 C 139.169,142.783 132.349,148.656 124.241,148.767 C 116.12,148.884 110.345,143.171 111.309,136.316 C 112.225,129.767 119,124.595 126.469,124.503 C 133.929,124.412 139.75,129.42 139.466,135.947" style="fill:#99c6e4" id="path104"/>
		<path d="M 137.925,171.363 C 137.55,179.992 129.821,187.455 120.669,187.607 C 111.505,187.763 105.105,180.519 106.321,171.855 C 107.473,163.632 115.137,157.16 123.477,157.039 C 131.81,156.92 138.281,163.168 137.925,171.363" style="fill:#cce3f2" id="path106"/>
		<path d="M 137.925,171.363 C 137.55,179.992 129.821,187.455 120.669,187.607 C 111.505,187.763 105.105,180.519 106.321,171.855 C 107.473,163.632 115.137,157.16 123.477,157.039 C 131.81,156.92 138.281,163.168 137.925,171.363" style="fill:#cce3f2" id="path108"/>
		<path d="M 137.925,171.363 C 137.55,179.992 129.821,187.455 120.669,187.607 C 111.505,187.763 105.105,180.519 106.321,171.855 C 107.473,163.632 115.137,157.16 123.477,157.039 C 131.81,156.92 138.281,163.168 137.925,171.363" style="fill:#cce3f2" id="path110"/>
		<path d="M 101.566,47.268 C 98.341,45.039 99.302,41.489 103.55,39.336 C 107.71,37.232 113.597,37.195 116.849,39.252 C 120.169,41.352 119.593,44.897 115.41,47.172 C 111.125,49.504 104.853,49.549 101.566,47.268" style="fill:#338dc9" id="path112"/>
		<path d="M 87.128,37.225 C 84.218,35.204 85.368,31.993 89.566,30.039 C 93.673,28.133 99.293,28.103 102.246,29.969 C 105.258,31.875 104.453,35.084 100.307,37.141 C 96.07,39.244 90.105,39.279 87.128,37.225" style="fill:#66aad7" id="path114"/>
		<path d="M 73.945,28.145 C 71.297,26.313 72.605,23.389 76.742,21.612 C 80.795,19.876 86.166,19.848 88.861,21.553 C 91.605,23.287 90.613,26.207 86.517,28.076 C 82.333,29.984 76.646,30.016 73.945,28.145" style="fill:#99c6e4" id="path116"/>
		<path d="M 73.945,28.145 C 71.297,26.313 72.605,23.389 76.742,21.612 C 80.795,19.876 86.166,19.848 88.861,21.553 C 91.605,23.287 90.613,26.207 86.517,28.076 C 82.333,29.984 76.646,30.016 73.945,28.145" style="fill:#99c6e4" id="path118"/>
		<path d="M 73.945,28.145 C 71.297,26.313 72.605,23.389 76.742,21.612 C 80.795,19.876 86.166,19.848 88.861,21.553 C 91.605,23.287 90.613,26.207 86.517,28.076 C 82.333,29.984 76.646,30.016 73.945,28.145" style="fill:#99c6e4" id="path120"/>
		<path d="M 61.878,19.787 C 59.46,18.115 60.898,15.447 64.966,13.828 C 68.956,12.236 74.101,12.217 76.57,13.775 C 79.078,15.363 77.933,18.027 73.894,19.728 C 69.773,21.465 64.337,21.492 61.878,19.787" style="fill:#cce3f2" id="path122"/>
		<path d="M 61.878,19.787 C 59.46,18.115 60.898,15.447 64.966,13.828 C 68.956,12.236 74.101,12.217 76.57,13.775 C 79.078,15.363 77.933,18.027 73.894,19.728 C 69.773,21.465 64.337,21.492 61.878,19.787" style="fill:#cce3f2" id="path124"/>
		<path d="M 61.878,19.787 C 59.46,18.115 60.898,15.447 64.966,13.828 C 68.956,12.236 74.101,12.217 76.57,13.775 C 79.078,15.363 77.933,18.027 73.894,19.728 C 69.773,21.465 64.337,21.492 61.878,19.787" style="fill:#cce3f2" id="path126"/>
		<path d="M 166.769,70.619 C 171.249,73.451 171.654,78.26 167.47,81.367 C 163.173,84.564 155.861,84.633 151.361,81.519 C 146.974,78.484 147.078,73.66 151.394,70.748 C 155.597,67.912 162.398,67.855 166.769,70.619" style="fill:#338dc9" id="path128"/>
		<path d="M 188.693,84.531 C 193.742,87.724 194.677,93.156 190.554,96.683 C 186.314,100.308 178.536,100.392 173.437,96.859 C 168.47,93.423 168.109,87.972 172.402,84.687 C 176.578,81.492 183.773,81.424 188.693,84.531" style="fill:#66aad7" id="path130"/>
		<path d="M 213.634,100.221 C 219.364,103.84 220.982,110.028 216.978,114.053 C 212.853,118.203 204.554,118.305 198.722,114.264 C 193.054,110.344 192.093,104.141 196.314,100.405 C 200.414,96.775 208.058,96.695 213.634,100.221" style="fill:#99c6e4" id="path132"/>
		<path d="M 213.634,100.221 C 219.364,103.84 220.982,110.028 216.978,114.053 C 212.853,118.203 204.554,118.305 198.722,114.264 C 193.054,110.344 192.093,104.141 196.314,100.405 C 200.414,96.775 208.058,96.695 213.634,100.221" style="fill:#99c6e4" id="path134"/>
		<path d="M 213.634,100.221 C 219.364,103.84 220.982,110.028 216.978,114.053 C 212.853,118.203 204.554,118.305 198.722,114.264 C 193.054,110.344 192.093,104.141 196.314,100.405 C 200.414,96.775 208.058,96.695 213.634,100.221" style="fill:#99c6e4" id="path136"/>
		<path d="M 242.238,118.293 C 248.814,122.447 251.299,129.568 247.502,134.217 C 243.578,139.016 234.67,139.137 227.922,134.469 C 221.387,129.948 219.647,122.805 223.734,118.512 C 227.693,114.355 235.853,114.26 242.238,118.293" style="fill:#cce3f2" id="path138"/>
		<path d="M 242.238,118.293 C 248.814,122.447 251.299,129.568 247.502,134.217 C 243.578,139.016 234.67,139.137 227.922,134.469 C 221.387,129.948 219.647,122.805 223.734,118.512 C 227.693,114.355 235.853,114.26 242.238,118.293" style="fill:#cce3f2" id="path140"/>
		<path d="M 242.238,118.293 C 248.814,122.447 251.299,129.568 247.502,134.217 C 243.578,139.016 234.67,139.137 227.922,134.469 C 221.387,129.948 219.647,122.805 223.734,118.512 C 227.693,114.355 235.853,114.26 242.238,118.293" style="fill:#cce3f2" id="path142"/>
	</g>
</svg>